<svg xmlns="http://www.w3.org/2000/svg" xmlns:xlink="http://www.w3.org/1999/xlink" width="500" zoomAndPan="magnify" viewBox="0 0 375 374.999991" height="500" preserveAspectRatio="xMidYMid meet" version="1.0"><defs><g/><clipPath id="d90c0355ae"><path d="M 72.449219 114.964844 L 207.449219 114.964844 L 207.449219 253 L 72.449219 253 Z M 72.449219 114.964844 " clip-rule="nonzero"/></clipPath><clipPath id="ed76961b94"><path d="M 139.949219 114.964844 C 102.671875 114.964844 72.449219 145.816406 72.449219 183.875 C 72.449219 221.933594 102.671875 252.789062 139.949219 252.789062 C 177.230469 252.789062 207.449219 221.933594 207.449219 183.875 C 207.449219 145.816406 177.230469 114.964844 139.949219 114.964844 Z M 139.949219 114.964844 " clip-rule="nonzero"/></clipPath><clipPath id="3ab9e3fe34"><path d="M 0.449219 0.964844 L 135.449219 0.964844 L 135.449219 138.960938 L 0.449219 138.960938 Z M 0.449219 0.964844 " clip-rule="nonzero"/></clipPath><clipPath id="e88ba6237f"><path d="M 67.949219 0.964844 C 30.671875 0.964844 0.449219 31.816406 0.449219 69.875 C 0.449219 107.933594 30.671875 138.789062 67.949219 138.789062 C 105.230469 138.789062 135.449219 107.933594 135.449219 69.875 C 135.449219 31.816406 105.230469 0.964844 67.949219 0.964844 Z M 67.949219 0.964844 " clip-rule="nonzero"/></clipPath><clipPath id="f0e53c7d55"><rect x="0" width="136" y="0" height="139"/></clipPath><clipPath id="959540382c"><path d="M 26 99 L 182 99 L 182 213 L 26 213 Z M 26 99 " clip-rule="nonzero"/></clipPath><clipPath id="cbb9f2cfd1"><path d="M 48.75 98.460938 L 181.820312 140.320312 L 158.863281 213.296875 L 25.792969 171.433594 Z M 48.75 98.460938 " clip-rule="nonzero"/></clipPath><clipPath id="1d7ee1b3c3"><path d="M 48.75 98.460938 L 181.820312 140.320312 L 158.863281 213.296875 L 25.792969 171.433594 Z M 48.75 98.460938 " clip-rule="nonzero"/></clipPath><clipPath id="3bfd349300"><path d="M 25 98 L 182 98 L 182 213 L 25 213 Z M 25 98 " clip-rule="nonzero"/></clipPath><clipPath id="8c8631ea72"><path d="M 48.75 98.460938 L 181.820312 140.320312 L 158.863281 213.296875 L 25.792969 171.433594 Z M 48.75 98.460938 " clip-rule="nonzero"/></clipPath><clipPath id="7056df7847"><path d="M 48.75 98.460938 L 181.820312 140.320312 L 158.863281 213.296875 L 25.792969 171.433594 Z M 48.75 98.460938 " clip-rule="nonzero"/></clipPath><clipPath id="fd37a6f5fa"><path d="M 77.652344 120.886719 L 203.632812 120.886719 L 203.632812 246.867188 L 77.652344 246.867188 Z M 77.652344 120.886719 " clip-rule="nonzero"/></clipPath><clipPath id="60700aede0"><path d="M 140.644531 120.886719 C 105.855469 120.886719 77.652344 149.089844 77.652344 183.875 C 77.652344 218.664062 105.855469 246.867188 140.644531 246.867188 C 175.433594 246.867188 203.632812 218.664062 203.632812 183.875 C 203.632812 149.089844 175.433594 120.886719 140.644531 120.886719 Z M 140.644531 120.886719 " clip-rule="nonzero"/></clipPath><clipPath id="a3b7aaca0d"><path d="M 0.652344 0.886719 L 126.632812 0.886719 L 126.632812 126.867188 L 0.652344 126.867188 Z M 0.652344 0.886719 " clip-rule="nonzero"/></clipPath><clipPath id="f292d11ede"><path d="M 63.644531 0.886719 C 28.855469 0.886719 0.652344 29.089844 0.652344 63.875 C 0.652344 98.664062 28.855469 126.867188 63.644531 126.867188 C 98.433594 126.867188 126.632812 98.664062 126.632812 63.875 C 126.632812 29.089844 98.433594 0.886719 63.644531 0.886719 Z M 63.644531 0.886719 " clip-rule="nonzero"/></clipPath><clipPath id="ae0a5502e4"><rect x="0" width="127" y="0" height="127"/></clipPath><clipPath id="8a0f0c8b68"><rect x="0" width="49" y="0" height="34"/></clipPath><clipPath id="78d151b1f4"><rect x="0" width="126" y="0" height="34"/></clipPath></defs><g clip-path="url(#d90c0355ae)"><g clip-path="url(#ed76961b94)"><g transform="matrix(1, 0, 0, 1, 72, 114)"><g clip-path="url(#f0e53c7d55)"><g clip-path="url(#3ab9e3fe34)"><g clip-path="url(#e88ba6237f)"><path fill="#e2a9f1" d="M 0.449219 0.964844 L 135.449219 0.964844 L 135.449219 138.601562 L 0.449219 138.601562 Z M 0.449219 0.964844 " fill-opacity="1" fill-rule="nonzero"/></g></g></g></g></g></g><g clip-path="url(#959540382c)"><g clip-path="url(#cbb9f2cfd1)"><g clip-path="url(#1d7ee1b3c3)"><path fill="#e2a9f1" d="M 49.066406 99.140625 L 181.148438 140.6875 L 158.574219 212.441406 L 26.496094 170.890625 Z M 49.066406 99.140625 " fill-opacity="1" fill-rule="nonzero"/></g></g></g><g clip-path="url(#3bfd349300)"><g clip-path="url(#8c8631ea72)"><g clip-path="url(#7056df7847)"><path fill="#e2a9f1" d="M 158.421875 212.925781 L 26.34375 171.375 C 26.074219 171.289062 25.925781 171.011719 26.011719 170.738281 L 48.582031 98.988281 C 48.667969 98.71875 48.949219 98.570312 49.21875 98.65625 L 181.300781 140.203125 C 181.570312 140.289062 181.71875 140.570312 181.632812 140.839844 L 159.0625 212.59375 C 158.976562 212.863281 158.695312 213.011719 158.421875 212.925781 Z M 27.132812 170.558594 L 158.242188 211.800781 L 180.507812 141.019531 L 49.398438 99.777344 Z M 27.132812 170.558594 " fill-opacity="1" fill-rule="nonzero"/></g></g></g><g clip-path="url(#fd37a6f5fa)"><g clip-path="url(#60700aede0)"><g transform="matrix(1, 0, 0, 1, 77, 120)"><g clip-path="url(#ae0a5502e4)"><g clip-path="url(#a3b7aaca0d)"><g clip-path="url(#f292d11ede)"><path fill="#f9507a" d="M 0.652344 0.886719 L 126.632812 0.886719 L 126.632812 126.867188 L 0.652344 126.867188 Z M 0.652344 0.886719 " fill-opacity="1" fill-rule="nonzero"/></g></g></g></g></g></g><g fill="#ffffff" fill-opacity="1"><g transform="translate(99.231041, 197.659117)"><g><path d="M 3.015625 0 L 9.21875 0 C 9.644531 0 9.976562 -0.117188 10.21875 -0.359375 C 10.46875 -0.609375 10.59375 -0.945312 10.59375 -1.375 L 10.59375 -2.59375 C 10.59375 -3.019531 10.46875 -3.359375 10.21875 -3.609375 C 9.976562 -3.847656 9.644531 -3.96875 9.21875 -3.96875 L 7.390625 -3.96875 C 6.960938 -3.96875 6.628906 -4.015625 6.390625 -4.109375 C 6.148438 -4.171875 5.96875 -4.320312 5.84375 -4.5625 C 5.6875 -4.800781 5.59375 -5.179688 5.5625 -5.703125 C 5.53125 -6.191406 5.515625 -6.847656 5.515625 -7.671875 C 5.515625 -8.523438 5.53125 -9.191406 5.5625 -9.671875 C 5.5625 -10.160156 5.609375 -10.539062 5.703125 -10.8125 C 5.765625 -11.0625 5.875 -11.226562 6.03125 -11.3125 C 6.144531 -11.375 6.3125 -11.40625 6.53125 -11.40625 L 7.484375 -11.40625 C 7.910156 -11.40625 8.242188 -11.53125 8.484375 -11.78125 C 8.734375 -12.019531 8.859375 -12.351562 8.859375 -12.78125 L 8.859375 -13.96875 C 8.859375 -14.394531 8.734375 -14.726562 8.484375 -14.96875 C 8.242188 -15.207031 7.910156 -15.328125 7.484375 -15.328125 L 6.53125 -15.328125 C 6.3125 -15.328125 6.144531 -15.359375 6.03125 -15.421875 C 5.875 -15.484375 5.765625 -15.640625 5.703125 -15.890625 C 5.609375 -16.097656 5.5625 -16.429688 5.5625 -16.890625 C 5.53125 -17.316406 5.515625 -17.894531 5.515625 -18.625 C 5.515625 -19.351562 5.53125 -19.945312 5.5625 -20.40625 C 5.59375 -20.832031 5.6875 -21.164062 5.84375 -21.40625 C 5.96875 -21.613281 6.148438 -21.75 6.390625 -21.8125 C 6.628906 -21.875 6.960938 -21.90625 7.390625 -21.90625 L 9.21875 -21.90625 C 9.644531 -21.90625 9.976562 -22.023438 10.21875 -22.265625 C 10.46875 -22.515625 10.59375 -22.851562 10.59375 -23.28125 L 10.59375 -24.515625 C 10.59375 -24.929688 10.46875 -25.265625 10.21875 -25.515625 C 9.976562 -25.753906 9.644531 -25.875 9.21875 -25.875 L 3.015625 -25.875 C 2.585938 -25.875 2.253906 -25.753906 2.015625 -25.515625 C 1.765625 -25.265625 1.640625 -24.929688 1.640625 -24.515625 L 1.640625 -1.375 C 1.640625 -0.945312 1.765625 -0.609375 2.015625 -0.359375 C 2.253906 -0.117188 2.585938 0 3.015625 0 Z M 3.015625 0 "/></g></g></g><g fill="#ffffff" fill-opacity="1"><g transform="translate(111.509429, 197.659117)"><g><path d="M 7.484375 -17.703125 L 5.890625 -24.828125 C 5.828125 -25.160156 5.675781 -25.421875 5.4375 -25.609375 C 5.1875 -25.785156 4.894531 -25.875 4.5625 -25.875 L 3.328125 -25.875 C 2.816406 -25.875 2.4375 -25.722656 2.1875 -25.421875 C 1.945312 -25.117188 1.890625 -24.707031 2.015625 -24.1875 L 7.171875 -1.046875 C 7.222656 -0.710938 7.375 -0.457031 7.625 -0.28125 C 7.863281 -0.09375 8.148438 0 8.484375 0 L 9.453125 0 C 10.117188 0 10.554688 -0.347656 10.765625 -1.046875 L 16.46875 -24.1875 C 16.59375 -24.707031 16.535156 -25.117188 16.296875 -25.421875 C 16.046875 -25.722656 15.664062 -25.875 15.15625 -25.875 L 13.921875 -25.875 C 13.253906 -25.875 12.8125 -25.523438 12.59375 -24.828125 L 10.859375 -17.703125 C 10.460938 -16.097656 10.144531 -14.898438 9.90625 -14.109375 C 9.632812 -13.285156 9.375 -12.875 9.125 -12.875 C 8.882812 -12.875 8.640625 -13.285156 8.390625 -14.109375 C 8.148438 -14.898438 7.847656 -16.097656 7.484375 -17.703125 Z M 7.484375 -17.703125 "/></g></g></g><g fill="#ffffff" fill-opacity="1"><g transform="translate(129.356455, 197.659117)"><g><path d="M 7.71875 -25.78125 C 6.894531 -25.78125 6.117188 -25.628906 5.390625 -25.328125 C 4.628906 -24.992188 3.972656 -24.550781 3.421875 -24 C 2.867188 -23.457031 2.441406 -22.820312 2.140625 -22.09375 C 1.804688 -21.332031 1.640625 -20.539062 1.640625 -19.71875 L 1.640625 -6.0625 C 1.640625 -5.25 1.804688 -4.476562 2.140625 -3.75 C 2.441406 -2.976562 2.867188 -2.320312 3.421875 -1.78125 C 3.972656 -1.226562 4.628906 -0.800781 5.390625 -0.5 C 6.117188 -0.164062 6.894531 0 7.71875 0 C 8.539062 0 9.332031 -0.164062 10.09375 -0.5 C 10.820312 -0.800781 11.457031 -1.226562 12 -1.78125 C 12.550781 -2.320312 12.992188 -2.976562 13.328125 -3.75 C 13.628906 -4.476562 13.78125 -5.25 13.78125 -6.0625 L 13.78125 -19.71875 C 13.78125 -20.539062 13.628906 -21.332031 13.328125 -22.09375 C 12.992188 -22.820312 12.550781 -23.457031 12 -24 C 11.457031 -24.550781 10.820312 -24.992188 10.09375 -25.328125 C 9.332031 -25.628906 8.539062 -25.78125 7.71875 -25.78125 Z M 9.859375 -6.0625 C 9.859375 -5.457031 9.660156 -4.957031 9.265625 -4.5625 C 8.835938 -4.132812 8.320312 -3.921875 7.71875 -3.921875 C 7.101562 -3.921875 6.597656 -4.132812 6.203125 -4.5625 C 5.773438 -4.957031 5.5625 -5.457031 5.5625 -6.0625 L 5.5625 -19.71875 C 5.5625 -20.320312 5.773438 -20.835938 6.203125 -21.265625 C 6.597656 -21.660156 7.101562 -21.859375 7.71875 -21.859375 C 8.320312 -21.859375 8.835938 -21.660156 9.265625 -21.265625 C 9.660156 -20.835938 9.859375 -20.320312 9.859375 -19.71875 Z M 9.859375 -6.0625 "/></g></g></g><g fill="#ffffff" fill-opacity="1"><g transform="translate(144.784326, 197.659117)"><g><path d="M 4.203125 -25.828125 L 3.015625 -25.828125 C 2.585938 -25.828125 2.253906 -25.707031 2.015625 -25.46875 C 1.765625 -25.226562 1.640625 -24.894531 1.640625 -24.46875 L 1.640625 -1.375 C 1.640625 -0.945312 1.765625 -0.609375 2.015625 -0.359375 C 2.253906 -0.117188 2.585938 0 3.015625 0 L 10.21875 0 C 10.644531 0 10.984375 -0.117188 11.234375 -0.359375 C 11.472656 -0.609375 11.59375 -0.945312 11.59375 -1.375 L 11.59375 -2.5625 C 11.59375 -2.976562 11.472656 -3.3125 11.234375 -3.5625 C 10.984375 -3.800781 10.644531 -3.921875 10.21875 -3.921875 L 7.890625 -3.921875 C 7.378906 -3.921875 6.96875 -4.03125 6.65625 -4.25 C 6.351562 -4.425781 6.128906 -4.878906 5.984375 -5.609375 C 5.796875 -6.304688 5.6875 -7.34375 5.65625 -8.71875 C 5.59375 -10.050781 5.5625 -11.875 5.5625 -14.1875 L 5.5625 -24.46875 C 5.5625 -24.894531 5.441406 -25.226562 5.203125 -25.46875 C 4.960938 -25.707031 4.628906 -25.828125 4.203125 -25.828125 Z M 4.203125 -25.828125 "/></g></g></g><g fill="#ffffff" fill-opacity="1"><g transform="translate(154.597875, 197.659117)"><g><path d="M 7.484375 -17.703125 L 5.890625 -24.828125 C 5.828125 -25.160156 5.675781 -25.421875 5.4375 -25.609375 C 5.1875 -25.785156 4.894531 -25.875 4.5625 -25.875 L 3.328125 -25.875 C 2.816406 -25.875 2.4375 -25.722656 2.1875 -25.421875 C 1.945312 -25.117188 1.890625 -24.707031 2.015625 -24.1875 L 7.171875 -1.046875 C 7.222656 -0.710938 7.375 -0.457031 7.625 -0.28125 C 7.863281 -0.09375 8.148438 0 8.484375 0 L 9.453125 0 C 10.117188 0 10.554688 -0.347656 10.765625 -1.046875 L 16.46875 -24.1875 C 16.59375 -24.707031 16.535156 -25.117188 16.296875 -25.421875 C 16.046875 -25.722656 15.664062 -25.875 15.15625 -25.875 L 13.921875 -25.875 C 13.253906 -25.875 12.8125 -25.523438 12.59375 -24.828125 L 10.859375 -17.703125 C 10.460938 -16.097656 10.144531 -14.898438 9.90625 -14.109375 C 9.632812 -13.285156 9.375 -12.875 9.125 -12.875 C 8.882812 -12.875 8.640625 -13.285156 8.390625 -14.109375 C 8.148438 -14.898438 7.847656 -16.097656 7.484375 -17.703125 Z M 7.484375 -17.703125 "/></g></g></g><g fill="#ffffff" fill-opacity="1"><g transform="translate(173.129578, 197.659117)"><g><path d="M 3.015625 0 L 9.21875 0 C 9.644531 0 9.976562 -0.117188 10.21875 -0.359375 C 10.46875 -0.609375 10.59375 -0.945312 10.59375 -1.375 L 10.59375 -2.59375 C 10.59375 -3.019531 10.46875 -3.359375 10.21875 -3.609375 C 9.976562 -3.847656 9.644531 -3.96875 9.21875 -3.96875 L 7.390625 -3.96875 C 6.960938 -3.96875 6.628906 -4.015625 6.390625 -4.109375 C 6.148438 -4.171875 5.96875 -4.320312 5.84375 -4.5625 C 5.6875 -4.800781 5.59375 -5.179688 5.5625 -5.703125 C 5.53125 -6.191406 5.515625 -6.847656 5.515625 -7.671875 C 5.515625 -8.523438 5.53125 -9.191406 5.5625 -9.671875 C 5.5625 -10.160156 5.609375 -10.539062 5.703125 -10.8125 C 5.765625 -11.0625 5.875 -11.226562 6.03125 -11.3125 C 6.144531 -11.375 6.3125 -11.40625 6.53125 -11.40625 L 7.484375 -11.40625 C 7.910156 -11.40625 8.242188 -11.53125 8.484375 -11.78125 C 8.734375 -12.019531 8.859375 -12.351562 8.859375 -12.78125 L 8.859375 -13.96875 C 8.859375 -14.394531 8.734375 -14.726562 8.484375 -14.96875 C 8.242188 -15.207031 7.910156 -15.328125 7.484375 -15.328125 L 6.53125 -15.328125 C 6.3125 -15.328125 6.144531 -15.359375 6.03125 -15.421875 C 5.875 -15.484375 5.765625 -15.640625 5.703125 -15.890625 C 5.609375 -16.097656 5.5625 -16.429688 5.5625 -16.890625 C 5.53125 -17.316406 5.515625 -17.894531 5.515625 -18.625 C 5.515625 -19.351562 5.53125 -19.945312 5.5625 -20.40625 C 5.59375 -20.832031 5.6875 -21.164062 5.84375 -21.40625 C 5.96875 -21.613281 6.148438 -21.75 6.390625 -21.8125 C 6.628906 -21.875 6.960938 -21.90625 7.390625 -21.90625 L 9.21875 -21.90625 C 9.644531 -21.90625 9.976562 -22.023438 10.21875 -22.265625 C 10.46875 -22.515625 10.59375 -22.851562 10.59375 -23.28125 L 10.59375 -24.515625 C 10.59375 -24.929688 10.46875 -25.265625 10.21875 -25.515625 C 9.976562 -25.753906 9.644531 -25.875 9.21875 -25.875 L 3.015625 -25.875 C 2.585938 -25.875 2.253906 -25.753906 2.015625 -25.515625 C 1.765625 -25.265625 1.640625 -24.929688 1.640625 -24.515625 L 1.640625 -1.375 C 1.640625 -0.945312 1.765625 -0.609375 2.015625 -0.359375 C 2.253906 -0.117188 2.585938 0 3.015625 0 Z M 3.015625 0 "/></g></g></g><g transform="matrix(1, 0, 0, 1, 204, 155)"><g clip-path="url(#8a0f0c8b68)"><g fill="#ffffff" fill-opacity="1"><g transform="translate(0.473018, 26.69219)"><g><path d="M 7.703125 -20.03125 C 7.316406 -20.976562 7.019531 -21.75 6.8125 -22.34375 C 6.570312 -22.925781 6.378906 -23.394531 6.234375 -23.75 C 6.085938 -24.070312 5.972656 -24.320312 5.890625 -24.5 C 5.765625 -24.65625 5.628906 -24.773438 5.484375 -24.859375 C 5.273438 -25.003906 5.039062 -25.078125 4.78125 -25.078125 L 3.53125 -25.078125 C 2.945312 -25.078125 2.550781 -24.914062 2.34375 -24.59375 C 2.101562 -24.269531 2.085938 -23.828125 2.296875 -23.265625 L 4.90625 -16.765625 C 5.5 -15.316406 5.972656 -14.125 6.328125 -13.1875 C 6.648438 -12.238281 6.898438 -11.394531 7.078125 -10.65625 C 7.253906 -9.894531 7.375 -9.160156 7.4375 -8.453125 C 7.457031 -7.710938 7.46875 -6.84375 7.46875 -5.84375 L 7.46875 -1.328125 C 7.46875 -0.910156 7.585938 -0.585938 7.828125 -0.359375 C 8.066406 -0.117188 8.390625 0 8.796875 0 L 9.953125 0 C 10.367188 0 10.691406 -0.117188 10.921875 -0.359375 C 11.160156 -0.585938 11.28125 -0.910156 11.28125 -1.328125 L 11.28125 -5.84375 C 11.28125 -6.84375 11.3125 -7.710938 11.375 -8.453125 C 11.425781 -9.160156 11.539062 -9.894531 11.71875 -10.65625 C 11.894531 -11.394531 12.160156 -12.238281 12.515625 -13.1875 C 12.835938 -14.125 13.28125 -15.316406 13.84375 -16.765625 L 16.453125 -23.265625 C 16.660156 -23.828125 16.660156 -24.269531 16.453125 -24.59375 C 16.210938 -24.914062 15.800781 -25.078125 15.21875 -25.078125 L 13.984375 -25.078125 C 13.710938 -25.078125 13.472656 -25.003906 13.265625 -24.859375 C 13.117188 -24.773438 13.003906 -24.65625 12.921875 -24.5 C 12.796875 -24.320312 12.660156 -24.070312 12.515625 -23.75 C 12.367188 -23.394531 12.191406 -22.925781 11.984375 -22.34375 C 11.753906 -21.75 11.445312 -20.976562 11.0625 -20.03125 C 10.675781 -19.09375 10.363281 -18.390625 10.125 -17.921875 C 9.863281 -17.410156 9.613281 -17.15625 9.375 -17.15625 C 9.144531 -17.15625 8.910156 -17.410156 8.671875 -17.921875 C 8.398438 -18.390625 8.078125 -19.09375 7.703125 -20.03125 Z M 7.703125 -20.03125 "/></g></g></g><g fill="#ffffff" fill-opacity="1"><g transform="translate(17.941368, 26.69219)"><g><path d="M 7.46875 -25 C 6.675781 -25 5.925781 -24.847656 5.21875 -24.546875 C 4.476562 -24.222656 3.84375 -23.796875 3.3125 -23.265625 C 2.78125 -22.734375 2.367188 -22.113281 2.078125 -21.40625 C 1.753906 -20.664062 1.59375 -19.898438 1.59375 -19.109375 L 1.59375 -5.890625 C 1.59375 -5.085938 1.753906 -4.332031 2.078125 -3.625 C 2.367188 -2.882812 2.78125 -2.25 3.3125 -1.71875 C 3.84375 -1.1875 4.476562 -0.773438 5.21875 -0.484375 C 5.925781 -0.160156 6.675781 0 7.46875 0 C 8.269531 0 9.039062 -0.160156 9.78125 -0.484375 C 10.488281 -0.773438 11.109375 -1.1875 11.640625 -1.71875 C 12.171875 -2.25 12.597656 -2.882812 12.921875 -3.625 C 13.210938 -4.332031 13.359375 -5.085938 13.359375 -5.890625 L 13.359375 -19.109375 C 13.359375 -19.898438 13.210938 -20.664062 12.921875 -21.40625 C 12.597656 -22.113281 12.171875 -22.734375 11.640625 -23.265625 C 11.109375 -23.796875 10.488281 -24.222656 9.78125 -24.546875 C 9.039062 -24.847656 8.269531 -25 7.46875 -25 Z M 9.546875 -5.890625 C 9.546875 -5.296875 9.359375 -4.804688 8.984375 -4.421875 C 8.566406 -4.003906 8.0625 -3.796875 7.46875 -3.796875 C 6.882812 -3.796875 6.398438 -4.003906 6.015625 -4.421875 C 5.597656 -4.804688 5.390625 -5.296875 5.390625 -5.890625 L 5.390625 -19.109375 C 5.390625 -19.703125 5.597656 -20.203125 6.015625 -20.609375 C 6.398438 -20.992188 6.882812 -21.1875 7.46875 -21.1875 C 8.0625 -21.1875 8.566406 -20.992188 8.984375 -20.609375 C 9.359375 -20.203125 9.546875 -19.703125 9.546875 -19.109375 Z M 9.546875 -5.890625 "/></g></g></g><g fill="#ffffff" fill-opacity="1"><g transform="translate(32.889057, 26.69219)"><g><path d="M 9.546875 -5.890625 C 9.546875 -5.296875 9.359375 -4.804688 8.984375 -4.421875 C 8.566406 -4.003906 8.0625 -3.796875 7.46875 -3.796875 C 6.882812 -3.796875 6.398438 -4.003906 6.015625 -4.421875 C 5.597656 -4.804688 5.390625 -5.296875 5.390625 -5.890625 L 5.390625 -23.703125 C 5.390625 -24.117188 5.273438 -24.445312 5.046875 -24.6875 C 4.804688 -24.914062 4.476562 -25.03125 4.0625 -25.03125 L 2.921875 -25.03125 C 2.503906 -25.03125 2.179688 -24.914062 1.953125 -24.6875 C 1.710938 -24.445312 1.59375 -24.117188 1.59375 -23.703125 L 1.59375 -5.890625 C 1.59375 -5.085938 1.753906 -4.332031 2.078125 -3.625 C 2.367188 -2.882812 2.78125 -2.25 3.3125 -1.71875 C 3.84375 -1.1875 4.476562 -0.773438 5.21875 -0.484375 C 5.925781 -0.160156 6.675781 0 7.46875 0 C 8.269531 0 9.039062 -0.160156 9.78125 -0.484375 C 10.488281 -0.773438 11.109375 -1.1875 11.640625 -1.71875 C 12.171875 -2.25 12.597656 -2.882812 12.921875 -3.625 C 13.210938 -4.332031 13.359375 -5.085938 13.359375 -5.890625 L 13.359375 -23.703125 C 13.359375 -24.117188 13.238281 -24.445312 13 -24.6875 C 12.769531 -24.914062 12.445312 -25.03125 12.03125 -25.03125 L 10.875 -25.03125 C 10.46875 -25.03125 10.144531 -24.914062 9.90625 -24.6875 C 9.664062 -24.445312 9.546875 -24.117188 9.546875 -23.703125 Z M 9.546875 -5.890625 "/></g></g></g></g></g><g transform="matrix(1, 0, 0, 1, 206, 186)"><g clip-path="url(#78d151b1f4)"><g fill="#ffffff" fill-opacity="1"><g transform="translate(1.491897, 26.20812)"><g><path d="M 8.796875 -13.84375 C 8.085938 -14.550781 7.515625 -15.171875 7.078125 -15.703125 C 6.609375 -16.234375 6.253906 -16.707031 6.015625 -17.125 C 5.773438 -17.5 5.613281 -17.851562 5.53125 -18.1875 C 5.4375 -18.507812 5.390625 -18.816406 5.390625 -19.109375 C 5.390625 -19.703125 5.597656 -20.203125 6.015625 -20.609375 C 6.398438 -20.992188 6.882812 -21.1875 7.46875 -21.1875 C 8.03125 -21.1875 8.519531 -20.992188 8.9375 -20.609375 C 9.320312 -20.222656 9.515625 -19.765625 9.515625 -19.234375 L 9.515625 -18.625 C 9.515625 -18.207031 9.71875 -18 10.125 -18 L 12.734375 -18 C 13.117188 -18 13.3125 -18.207031 13.3125 -18.625 L 13.3125 -19.203125 C 13.3125 -20.054688 13.164062 -20.789062 12.875 -21.40625 C 12.664062 -21.875 12.472656 -22.273438 12.296875 -22.609375 C 12.085938 -22.929688 11.878906 -23.207031 11.671875 -23.4375 C 11.441406 -23.644531 11.164062 -23.835938 10.84375 -24.015625 C 10.507812 -24.191406 10.109375 -24.367188 9.640625 -24.546875 C 8.992188 -24.816406 8.257812 -24.953125 7.4375 -24.953125 C 6.632812 -24.953125 5.878906 -24.800781 5.171875 -24.5 C 4.429688 -24.175781 3.796875 -23.75 3.265625 -23.21875 C 2.742188 -22.6875 2.332031 -22.066406 2.03125 -21.359375 C 1.707031 -20.628906 1.546875 -19.863281 1.546875 -19.0625 C 1.546875 -18.238281 1.664062 -17.472656 1.90625 -16.765625 C 2.132812 -16.054688 2.441406 -15.40625 2.828125 -14.8125 C 3.210938 -14.195312 3.640625 -13.640625 4.109375 -13.140625 C 4.585938 -12.640625 5.046875 -12.164062 5.484375 -11.71875 C 5.597656 -11.664062 5.671875 -11.640625 5.703125 -11.640625 C 5.796875 -11.640625 5.867188 -11.664062 5.921875 -11.71875 C 5.773438 -11.570312 5.773438 -11.441406 5.921875 -11.328125 L 6.109375 -11.109375 C 6.816406 -10.398438 7.40625 -9.78125 7.875 -9.25 C 8.3125 -8.71875 8.648438 -8.257812 8.890625 -7.875 C 9.128906 -7.457031 9.289062 -7.085938 9.375 -6.765625 C 9.46875 -6.441406 9.515625 -6.132812 9.515625 -5.84375 C 9.515625 -5.25 9.320312 -4.757812 8.9375 -4.375 C 8.519531 -3.96875 8.019531 -3.765625 7.4375 -3.765625 C 6.875 -3.765625 6.398438 -3.953125 6.015625 -4.328125 C 5.597656 -4.710938 5.390625 -5.171875 5.390625 -5.703125 L 5.390625 -6.328125 C 5.390625 -6.734375 5.1875 -6.9375 4.78125 -6.9375 L 2.21875 -6.9375 C 1.800781 -6.9375 1.59375 -6.734375 1.59375 -6.328125 L 1.59375 -5.703125 C 1.59375 -5.316406 1.632812 -4.945312 1.71875 -4.59375 C 1.78125 -4.21875 1.882812 -3.851562 2.03125 -3.5 C 2.238281 -3.019531 2.445312 -2.617188 2.65625 -2.296875 C 2.832031 -1.972656 3.035156 -1.707031 3.265625 -1.5 C 3.472656 -1.269531 3.738281 -1.078125 4.0625 -0.921875 C 4.394531 -0.742188 4.796875 -0.566406 5.265625 -0.390625 C 5.878906 -0.0976562 6.613281 0.046875 7.46875 0.046875 C 8.269531 0.046875 9.039062 -0.113281 9.78125 -0.4375 C 10.488281 -0.738281 11.109375 -1.15625 11.640625 -1.6875 C 12.171875 -2.21875 12.597656 -2.847656 12.921875 -3.578125 C 13.210938 -4.285156 13.359375 -5.039062 13.359375 -5.84375 C 13.359375 -6.726562 13.222656 -7.535156 12.953125 -8.265625 C 12.691406 -8.972656 12.367188 -9.640625 11.984375 -10.265625 C 11.578125 -10.878906 11.132812 -11.453125 10.65625 -11.984375 C 10.15625 -12.515625 9.671875 -13.003906 9.203125 -13.453125 Z M 8.796875 -13.84375 "/></g></g></g><g fill="#ffffff" fill-opacity="1"><g transform="translate(16.439585, 26.20812)"><g><path d="M 7.46875 -25 C 6.675781 -25 5.925781 -24.847656 5.21875 -24.546875 C 4.476562 -24.222656 3.84375 -23.796875 3.3125 -23.265625 C 2.78125 -22.734375 2.367188 -22.113281 2.078125 -21.40625 C 1.753906 -20.664062 1.59375 -19.898438 1.59375 -19.109375 L 1.59375 -5.890625 C 1.59375 -5.085938 1.753906 -4.332031 2.078125 -3.625 C 2.367188 -2.882812 2.78125 -2.25 3.3125 -1.71875 C 3.84375 -1.1875 4.476562 -0.773438 5.21875 -0.484375 C 5.925781 -0.160156 6.675781 0 7.46875 0 C 8.269531 0 9.039062 -0.160156 9.78125 -0.484375 C 10.488281 -0.773438 11.109375 -1.1875 11.640625 -1.71875 C 12.171875 -2.25 12.597656 -2.882812 12.921875 -3.625 C 13.210938 -4.332031 13.359375 -5.085938 13.359375 -5.890625 L 13.359375 -19.109375 C 13.359375 -19.898438 13.210938 -20.664062 12.921875 -21.40625 C 12.597656 -22.113281 12.171875 -22.734375 11.640625 -23.265625 C 11.109375 -23.796875 10.488281 -24.222656 9.78125 -24.546875 C 9.039062 -24.847656 8.269531 -25 7.46875 -25 Z M 9.546875 -5.890625 C 9.546875 -5.296875 9.359375 -4.804688 8.984375 -4.421875 C 8.566406 -4.003906 8.0625 -3.796875 7.46875 -3.796875 C 6.882812 -3.796875 6.398438 -4.003906 6.015625 -4.421875 C 5.597656 -4.804688 5.390625 -5.296875 5.390625 -5.890625 L 5.390625 -19.109375 C 5.390625 -19.703125 5.597656 -20.203125 6.015625 -20.609375 C 6.398438 -20.992188 6.882812 -21.1875 7.46875 -21.1875 C 8.0625 -21.1875 8.566406 -20.992188 8.984375 -20.609375 C 9.359375 -20.203125 9.546875 -19.703125 9.546875 -19.109375 Z M 9.546875 -5.890625 "/></g></g></g><g fill="#ffffff" fill-opacity="1"><g transform="translate(31.387273, 26.20812)"><g><path d="M 4.0625 -25.03125 L 2.921875 -25.03125 C 2.503906 -25.03125 2.179688 -24.914062 1.953125 -24.6875 C 1.710938 -24.445312 1.59375 -24.117188 1.59375 -23.703125 L 1.59375 -1.328125 C 1.59375 -0.910156 1.710938 -0.585938 1.953125 -0.359375 C 2.179688 -0.117188 2.503906 0 2.921875 0 L 9.90625 0 C 10.320312 0 10.644531 -0.117188 10.875 -0.359375 C 11.113281 -0.585938 11.234375 -0.910156 11.234375 -1.328125 L 11.234375 -2.484375 C 11.234375 -2.890625 11.113281 -3.210938 10.875 -3.453125 C 10.644531 -3.679688 10.320312 -3.796875 9.90625 -3.796875 L 7.65625 -3.796875 C 7.15625 -3.796875 6.753906 -3.898438 6.453125 -4.109375 C 6.160156 -4.285156 5.941406 -4.726562 5.796875 -5.4375 C 5.617188 -6.113281 5.515625 -7.117188 5.484375 -8.453125 C 5.421875 -9.742188 5.390625 -11.507812 5.390625 -13.75 L 5.390625 -23.703125 C 5.390625 -24.117188 5.273438 -24.445312 5.046875 -24.6875 C 4.804688 -24.914062 4.476562 -25.03125 4.0625 -25.03125 Z M 4.0625 -25.03125 "/></g></g></g><g fill="#ffffff" fill-opacity="1"><g transform="translate(44.212213, 26.20812)"><g><path d="M 9.546875 -5.890625 C 9.546875 -5.296875 9.359375 -4.804688 8.984375 -4.421875 C 8.566406 -4.003906 8.0625 -3.796875 7.46875 -3.796875 C 6.882812 -3.796875 6.398438 -4.003906 6.015625 -4.421875 C 5.597656 -4.804688 5.390625 -5.296875 5.390625 -5.890625 L 5.390625 -23.703125 C 5.390625 -24.117188 5.273438 -24.445312 5.046875 -24.6875 C 4.804688 -24.914062 4.476562 -25.03125 4.0625 -25.03125 L 2.921875 -25.03125 C 2.503906 -25.03125 2.179688 -24.914062 1.953125 -24.6875 C 1.710938 -24.445312 1.59375 -24.117188 1.59375 -23.703125 L 1.59375 -5.890625 C 1.59375 -5.085938 1.753906 -4.332031 2.078125 -3.625 C 2.367188 -2.882812 2.78125 -2.25 3.3125 -1.71875 C 3.84375 -1.1875 4.476562 -0.773438 5.21875 -0.484375 C 5.925781 -0.160156 6.675781 0 7.46875 0 C 8.269531 0 9.039062 -0.160156 9.78125 -0.484375 C 10.488281 -0.773438 11.109375 -1.1875 11.640625 -1.71875 C 12.171875 -2.25 12.597656 -2.882812 12.921875 -3.625 C 13.210938 -4.332031 13.359375 -5.085938 13.359375 -5.890625 L 13.359375 -23.703125 C 13.359375 -24.117188 13.238281 -24.445312 13 -24.6875 C 12.769531 -24.914062 12.445312 -25.03125 12.03125 -25.03125 L 10.875 -25.03125 C 10.46875 -25.03125 10.144531 -24.914062 9.90625 -24.6875 C 9.664062 -24.445312 9.546875 -24.117188 9.546875 -23.703125 Z M 9.546875 -5.890625 "/></g></g></g><g fill="#ffffff" fill-opacity="1"><g transform="translate(58.496492, 26.20812)"><g><path d="M 2.921875 -21.234375 L 4.0625 -21.234375 C 4.332031 -21.234375 4.554688 -21.144531 4.734375 -20.96875 C 4.878906 -20.757812 5 -20.316406 5.09375 -19.640625 C 5.144531 -18.929688 5.1875 -17.925781 5.21875 -16.625 C 5.25 -15.300781 5.265625 -13.519531 5.265625 -11.28125 L 5.265625 -1.328125 C 5.265625 -0.910156 5.382812 -0.585938 5.625 -0.359375 C 5.851562 -0.117188 6.175781 0 6.59375 0 L 7.734375 0 C 8.148438 0 8.476562 -0.117188 8.71875 -0.359375 C 8.945312 -0.585938 9.0625 -0.910156 9.0625 -1.328125 L 9.0625 -11.28125 C 9.0625 -13.519531 9.078125 -15.300781 9.109375 -16.625 C 9.140625 -17.925781 9.203125 -18.929688 9.296875 -19.640625 C 9.347656 -20.316406 9.445312 -20.757812 9.59375 -20.96875 C 9.738281 -21.144531 9.945312 -21.234375 10.21875 -21.234375 L 11.40625 -21.234375 C 11.820312 -21.234375 12.148438 -21.351562 12.390625 -21.59375 C 12.617188 -21.820312 12.734375 -22.144531 12.734375 -22.5625 L 12.734375 -23.703125 C 12.734375 -24.117188 12.617188 -24.445312 12.390625 -24.6875 C 12.148438 -24.914062 11.820312 -25.03125 11.40625 -25.03125 L 2.875 -25.03125 C 2.457031 -25.03125 2.132812 -24.914062 1.90625 -24.6875 C 1.664062 -24.445312 1.546875 -24.117188 1.546875 -23.703125 L 1.59375 -22.5625 C 1.59375 -22.144531 1.710938 -21.820312 1.953125 -21.59375 C 2.179688 -21.351562 2.503906 -21.234375 2.921875 -21.234375 Z M 2.921875 -21.234375 "/></g></g></g><g fill="#ffffff" fill-opacity="1"><g transform="translate(72.869262, 26.20812)"><g><path d="M 5.390625 -1.328125 L 5.390625 -23.75 C 5.390625 -24.164062 5.273438 -24.492188 5.046875 -24.734375 C 4.804688 -24.960938 4.476562 -25.078125 4.0625 -25.078125 L 2.921875 -25.078125 C 2.503906 -25.078125 2.179688 -24.960938 1.953125 -24.734375 C 1.710938 -24.492188 1.59375 -24.164062 1.59375 -23.75 L 1.59375 -1.328125 C 1.59375 -0.910156 1.710938 -0.585938 1.953125 -0.359375 C 2.179688 -0.117188 2.503906 0 2.921875 0 L 4.0625 0 C 4.476562 0 4.804688 -0.117188 5.046875 -0.359375 C 5.273438 -0.585938 5.390625 -0.910156 5.390625 -1.328125 Z M 5.390625 -1.328125 "/></g></g></g><g fill="#ffffff" fill-opacity="1"><g transform="translate(79.856638, 26.20812)"><g><path d="M 7.46875 -25 C 6.675781 -25 5.925781 -24.847656 5.21875 -24.546875 C 4.476562 -24.222656 3.84375 -23.796875 3.3125 -23.265625 C 2.78125 -22.734375 2.367188 -22.113281 2.078125 -21.40625 C 1.753906 -20.664062 1.59375 -19.898438 1.59375 -19.109375 L 1.59375 -5.890625 C 1.59375 -5.085938 1.753906 -4.332031 2.078125 -3.625 C 2.367188 -2.882812 2.78125 -2.25 3.3125 -1.71875 C 3.84375 -1.1875 4.476562 -0.773438 5.21875 -0.484375 C 5.925781 -0.160156 6.675781 0 7.46875 0 C 8.269531 0 9.039062 -0.160156 9.78125 -0.484375 C 10.488281 -0.773438 11.109375 -1.1875 11.640625 -1.71875 C 12.171875 -2.25 12.597656 -2.882812 12.921875 -3.625 C 13.210938 -4.332031 13.359375 -5.085938 13.359375 -5.890625 L 13.359375 -19.109375 C 13.359375 -19.898438 13.210938 -20.664062 12.921875 -21.40625 C 12.597656 -22.113281 12.171875 -22.734375 11.640625 -23.265625 C 11.109375 -23.796875 10.488281 -24.222656 9.78125 -24.546875 C 9.039062 -24.847656 8.269531 -25 7.46875 -25 Z M 9.546875 -5.890625 C 9.546875 -5.296875 9.359375 -4.804688 8.984375 -4.421875 C 8.566406 -4.003906 8.0625 -3.796875 7.46875 -3.796875 C 6.882812 -3.796875 6.398438 -4.003906 6.015625 -4.421875 C 5.597656 -4.804688 5.390625 -5.296875 5.390625 -5.890625 L 5.390625 -19.109375 C 5.390625 -19.703125 5.597656 -20.203125 6.015625 -20.609375 C 6.398438 -20.992188 6.882812 -21.1875 7.46875 -21.1875 C 8.0625 -21.1875 8.566406 -20.992188 8.984375 -20.609375 C 9.359375 -20.203125 9.546875 -19.703125 9.546875 -19.109375 Z M 9.546875 -5.890625 "/></g></g></g><g fill="#ffffff" fill-opacity="1"><g transform="translate(94.804326, 26.20812)"><g><path d="M 7.5625 -18.046875 C 7 -19.429688 6.554688 -20.550781 6.234375 -21.40625 C 5.910156 -22.257812 5.644531 -22.925781 5.4375 -23.40625 C 5.226562 -23.875 5.066406 -24.210938 4.953125 -24.421875 C 4.835938 -24.628906 4.707031 -24.773438 4.5625 -24.859375 C 4.351562 -25.003906 4.113281 -25.078125 3.84375 -25.078125 L 2.875 -25.078125 C 2.457031 -25.078125 2.132812 -24.960938 1.90625 -24.734375 C 1.664062 -24.492188 1.546875 -24.164062 1.546875 -23.75 L 1.546875 -1.328125 C 1.546875 -0.910156 1.664062 -0.585938 1.90625 -0.359375 C 2.132812 -0.117188 2.457031 0 2.875 0 L 4.03125 0 C 4.4375 0 4.757812 -0.117188 5 -0.359375 C 5.238281 -0.585938 5.359375 -0.910156 5.359375 -1.328125 L 5.359375 -7.296875 C 5.359375 -8.628906 5.382812 -9.632812 5.4375 -10.3125 C 5.46875 -10.957031 5.570312 -11.28125 5.75 -11.28125 C 6.039062 -11.28125 6.734375 -9.863281 7.828125 -7.03125 C 8.390625 -5.644531 8.832031 -4.523438 9.15625 -3.671875 C 9.476562 -2.816406 9.742188 -2.15625 9.953125 -1.6875 C 10.160156 -1.207031 10.320312 -0.863281 10.4375 -0.65625 C 10.550781 -0.457031 10.6875 -0.3125 10.84375 -0.21875 C 11.039062 -0.0703125 11.273438 0 11.546875 0 L 12.515625 0 C 12.929688 0 13.253906 -0.117188 13.484375 -0.359375 C 13.722656 -0.585938 13.84375 -0.910156 13.84375 -1.328125 L 13.84375 -23.75 C 13.84375 -24.164062 13.722656 -24.492188 13.484375 -24.734375 C 13.253906 -24.960938 12.929688 -25.078125 12.515625 -25.078125 L 11.375 -25.078125 C 10.957031 -25.078125 10.628906 -24.960938 10.390625 -24.734375 C 10.160156 -24.492188 10.046875 -24.164062 10.046875 -23.75 L 10.046875 -17.78125 C 10.046875 -16.457031 10.03125 -15.46875 10 -14.8125 C 9.9375 -14.132812 9.816406 -13.796875 9.640625 -13.796875 C 9.460938 -13.796875 9.210938 -14.148438 8.890625 -14.859375 C 8.566406 -15.566406 8.125 -16.628906 7.5625 -18.046875 Z M 7.5625 -18.046875 "/></g></g></g><g fill="#ffffff" fill-opacity="1"><g transform="translate(110.282694, 26.20812)"><g><path d="M 8.796875 -13.84375 C 8.085938 -14.550781 7.515625 -15.171875 7.078125 -15.703125 C 6.609375 -16.234375 6.253906 -16.707031 6.015625 -17.125 C 5.773438 -17.5 5.613281 -17.851562 5.53125 -18.1875 C 5.4375 -18.507812 5.390625 -18.816406 5.390625 -19.109375 C 5.390625 -19.703125 5.597656 -20.203125 6.015625 -20.609375 C 6.398438 -20.992188 6.882812 -21.1875 7.46875 -21.1875 C 8.03125 -21.1875 8.519531 -20.992188 8.9375 -20.609375 C 9.320312 -20.222656 9.515625 -19.765625 9.515625 -19.234375 L 9.515625 -18.625 C 9.515625 -18.207031 9.71875 -18 10.125 -18 L 12.734375 -18 C 13.117188 -18 13.3125 -18.207031 13.3125 -18.625 L 13.3125 -19.203125 C 13.3125 -20.054688 13.164062 -20.789062 12.875 -21.40625 C 12.664062 -21.875 12.472656 -22.273438 12.296875 -22.609375 C 12.085938 -22.929688 11.878906 -23.207031 11.671875 -23.4375 C 11.441406 -23.644531 11.164062 -23.835938 10.84375 -24.015625 C 10.507812 -24.191406 10.109375 -24.367188 9.640625 -24.546875 C 8.992188 -24.816406 8.257812 -24.953125 7.4375 -24.953125 C 6.632812 -24.953125 5.878906 -24.800781 5.171875 -24.5 C 4.429688 -24.175781 3.796875 -23.75 3.265625 -23.21875 C 2.742188 -22.6875 2.332031 -22.066406 2.03125 -21.359375 C 1.707031 -20.628906 1.546875 -19.863281 1.546875 -19.0625 C 1.546875 -18.238281 1.664062 -17.472656 1.90625 -16.765625 C 2.132812 -16.054688 2.441406 -15.40625 2.828125 -14.8125 C 3.210938 -14.195312 3.640625 -13.640625 4.109375 -13.140625 C 4.585938 -12.640625 5.046875 -12.164062 5.484375 -11.71875 C 5.597656 -11.664062 5.671875 -11.640625 5.703125 -11.640625 C 5.796875 -11.640625 5.867188 -11.664062 5.921875 -11.71875 C 5.773438 -11.570312 5.773438 -11.441406 5.921875 -11.328125 L 6.109375 -11.109375 C 6.816406 -10.398438 7.40625 -9.78125 7.875 -9.25 C 8.3125 -8.71875 8.648438 -8.257812 8.890625 -7.875 C 9.128906 -7.457031 9.289062 -7.085938 9.375 -6.765625 C 9.46875 -6.441406 9.515625 -6.132812 9.515625 -5.84375 C 9.515625 -5.25 9.320312 -4.757812 8.9375 -4.375 C 8.519531 -3.96875 8.019531 -3.765625 7.4375 -3.765625 C 6.875 -3.765625 6.398438 -3.953125 6.015625 -4.328125 C 5.597656 -4.710938 5.390625 -5.171875 5.390625 -5.703125 L 5.390625 -6.328125 C 5.390625 -6.734375 5.1875 -6.9375 4.78125 -6.9375 L 2.21875 -6.9375 C 1.800781 -6.9375 1.59375 -6.734375 1.59375 -6.328125 L 1.59375 -5.703125 C 1.59375 -5.316406 1.632812 -4.945312 1.71875 -4.59375 C 1.78125 -4.21875 1.882812 -3.851562 2.03125 -3.5 C 2.238281 -3.019531 2.445312 -2.617188 2.65625 -2.296875 C 2.832031 -1.972656 3.035156 -1.707031 3.265625 -1.5 C 3.472656 -1.269531 3.738281 -1.078125 4.0625 -0.921875 C 4.394531 -0.742188 4.796875 -0.566406 5.265625 -0.390625 C 5.878906 -0.0976562 6.613281 0.046875 7.46875 0.046875 C 8.269531 0.046875 9.039062 -0.113281 9.78125 -0.4375 C 10.488281 -0.738281 11.109375 -1.15625 11.640625 -1.6875 C 12.171875 -2.21875 12.597656 -2.847656 12.921875 -3.578125 C 13.210938 -4.285156 13.359375 -5.039062 13.359375 -5.84375 C 13.359375 -6.726562 13.222656 -7.535156 12.953125 -8.265625 C 12.691406 -8.972656 12.367188 -9.640625 11.984375 -10.265625 C 11.578125 -10.878906 11.132812 -11.453125 10.65625 -11.984375 C 10.15625 -12.515625 9.671875 -13.003906 9.203125 -13.453125 Z M 8.796875 -13.84375 "/></g></g></g></g></g></svg>